<?xml version="1.0" encoding="utf-8"?>
<!-- Generator: Adobe Illustrator 15.1.0, SVG Export Plug-In  -->
<!DOCTYPE svg PUBLIC "-//W3C//DTD SVG 1.1//EN" "http://www.w3.org/Graphics/SVG/1.1/DTD/svg11.dtd" [
	<!ENTITY ns_flows "http://ns.adobe.com/Flows/1.0/">
]>
<svg version="1.1"
	 xmlns="http://www.w3.org/2000/svg" xmlns:xlink="http://www.w3.org/1999/xlink" xmlns:a="http://ns.adobe.com/AdobeSVGViewerExtensions/3.0/"
	 x="0px" y="0px" width="91px" height="89px" viewBox="-5.674 -4.081 91 89"
	 overflow="visible" enable-background="new -5.674 -4.081 91 89" xml:space="preserve">
<defs>
</defs>
<g>
	<g>
		<g>
			<path fill="#AFBD63" d="M39.567,80.631c-0.672-0.665-1.326-2.153-1.516-3.27c-0.678-3.953,0.091-6.164,0.383-7.126
				c1.615-5.331,4.627-6.446,5.816-7.296c3.049-2.18,7.27-5.913,7.652-6.325c1.102-1.184,1.041-2.59,1.164-3.578
				c0.132-1.071,0.154-2.777,0.578-6.016c0.387-2.951-0.44-3.917-0.595-4.149c-0.598-0.908-1.483-2.391-2.347-3.011
				c-5.648-4.056-6.752-5.279-7.146-5.685c-2.862-2.953-4.464-4.579-5.03-5.496c-1.951-3.162-1.661-4.253-1.572-5.36
				c0.082-1.027,0.63-1.859,1.5-2.536c0.814-0.633,1.557-0.894,1.71-0.894c0.572,0,0.891,0.421,1.262,0.952
				c0.472,0.675,0.879,1.151,1.238,1.87c2.921,4.233,3.472,4.568,3.833,4.928c3.438,2.468,3.823,2.463,4.139,2.59
				c3.351,1.133,4.414,0.808,5.292,0.753c1.647-0.103,2.53-0.125,4.008-0.864c0.21-0.105,1.446-1,1.726-1.04
				c1.218-0.178,2.235,0.198,2.613-0.067c0.544-0.384-0.155-0.332-0.333-1.704c-0.731-5.672-2.081-8.545-2.435-9.232
				c-2.22-4.303-3.466-5.143-5.292-5.668c-4.461-1.283-7.155-0.849-7.974-0.742c-2.475,0.319-3.271,0.978-3.958,1.227
				c-0.149,0.054-1.061,0.607-1.152,0.63c-0.534,0.128-0.563,0.166-0.629-0.032c-0.11-0.33,0.534-0.897,0.662-1.185
				c0.568-1.276,0.451-1.943,0.438-2.325c-0.145-4.146-0.296-4.574-0.488-4.804c-0.918-1.75-1.758-2.62-2-2.844
				c-0.608-0.569-3.734-2.067-4.108-2.204c-1.279-0.248-3.54-0.095-4.694,0.115c-2.45,0.446-6.575,0.676-7.734,1.038
				c-0.268,0.373-0.377,2.551-0.21,3.491c1.298,7.286,0.411,7.749,0.86,8.191c1.835,1.81,2.72,1.552,4.502,1.668
				c1.27,0.083,2.014,0.124,2.969,0.342c1.098,0.251,2.308,0.375,2.372,0.855c0.108,0.829-0.358,0.565-1.157,1.541
				c-0.842,0.79-1.156,1.474-1.399,1.843c-0.408,0.621-0.588,1.37-0.862,2.136c-0.367,1.027-0.539,1.799-0.486,2.848
				c0.193,3.778,0.399,5.24,0.821,5.922c2.184,3.529,3.62,4.736,4.542,5.658c0.614,0.615,1.483,1.381,2.197,1.9
				c0.204,0.147,1.149,0.914,1.202,1.179c0.035,0.174-0.72,0.343-0.824,0.355c-2.588,0.309-4.821,1.165-5.586,1.488
				c-1.718,0.727-2.994,1.528-4.362,2.839c-2.21,2.118-3.197,3.382-3.56,4.029c-2.45,4.26-1.994,6.226-1.786,8.941
				c0.104,1.35,0.298,1.941,0.332,2.061c0.29,0.847,0.532,1.4,0.832,1.827c0.743,1.062,2.834,0.453,3.576,0.279
				c9.17-2.152,10.36-3.121,10.921-3.32c7.408-4.491,7.075-4.897,7.27-5.049c0.076-0.06,0.676-1.001,0.881-0.847
				c0.402,0.414,0.344,0.401,0.379,0.665c0.088,0.687,0.166,1.018,0,1.694c-0.493,2.003-1.803,3.053-3.293,4.309
				c-0.87,0.732-1.921,1.584-2.785,2.084c-0.86,0.5-2.217,1.91-2.621,2.447c-1.647,2.185-2.581,4.836-2.696,5.43
				c-0.631,3.238-1.003,5.623-0.102,8.73c0.415,1.426,1.489,3.309,3.044,3.828"/>
		</g>
		<g>
			<path fill="#AFBD63" d="M0,53.425l18.437-16.168h5.736L5.735,53.425l18.438,16.168h-5.736L0,53.425z"/>
			<path fill="#AFBD63" d="M79.984,53.425L61.546,69.593h-5.735l18.437-16.168L55.811,37.257h5.735L79.984,53.425z"/>
		</g>
	</g>
</g>
</svg>
