<?xml version="1.0" encoding="utf-8"?>
<!-- Generator: Adobe Illustrator 15.1.0, SVG Export Plug-In . SVG Version: 6.00 Build 0)  -->
<!DOCTYPE svg PUBLIC "-//W3C//DTD SVG 1.1//EN" "http://www.w3.org/Graphics/SVG/1.1/DTD/svg11.dtd">
<svg version="1.1" id="Layer_1" xmlns="http://www.w3.org/2000/svg" xmlns:xlink="http://www.w3.org/1999/xlink" x="0px" y="0px"
	 width="535px" height="89px" viewBox="0 0 535 89" enable-background="new 0 0 535 89" xml:space="preserve">
<rect x="-4.667" y="-8" display="none" fill="#080000" width="566.667" height="141.667"/>
<g>
	<path fill="#010101" fill-opacity="0" d="M12.659,18.34c4.08-0.954,7.565-3.627,10.891-6.12
		c48.684-36.501-3.43,34.119-14.221,42.751C-8.826,69.495,5.649,42.347,25.89,32.741c8.257-3.918,16.166-8.101,24.122-12.601
		c9.313-5.267,19.671-8.66,28.712-14.311"/>
	<path fill="#FFFFFF" d="M12.623,18.194c2.034-0.633,3.888-1.658,5.625-2.851c1.738-1.198,3.349-2.575,5.029-3.915
		c3.345-2.696,6.782-5.3,10.495-7.591c1.879-1.122,3.768-2.229,6.033-2.948c0.574-0.168,1.178-0.311,1.869-0.349
		c0.67-0.031,1.533,0.018,2.359,0.603c0.399,0.285,0.726,0.698,0.911,1.104c0.19,0.406,0.286,0.805,0.334,1.172
		c0.087,0.733,0.021,1.372-0.072,1.979c-0.425,2.391-1.358,4.386-2.302,6.373c-0.952,1.977-2.057,3.848-3.18,5.696
		c-4.599,7.333-9.935,14.071-15.215,20.826c-2.643,3.377-5.318,6.727-8.067,10.025c-1.382,1.645-2.779,3.276-4.245,4.869
		c-0.741,0.793-1.495,1.57-2.346,2.306c-0.827,0.7-1.673,1.386-2.55,2.038c-0.88,0.652-1.782,1.285-2.798,1.83
		c-0.513,0.269-1.045,0.522-1.704,0.688c-0.331,0.077-0.706,0.143-1.184,0.069c-0.47-0.044-1.12-0.448-1.357-0.974
		C0.005,58.637-0.003,58.209,0,57.842c0.015-0.365,0.071-0.691,0.142-0.999c0.144-0.612,0.342-1.166,0.565-1.698
		c0.456-1.059,0.994-2.037,1.568-2.985c2.318-3.773,5.144-7.127,8.255-10.199c3.115-3.066,6.521-5.857,10.254-8.215
		c0.935-0.586,1.885-1.154,2.868-1.668c0.491-0.257,0.987-0.507,1.488-0.747l1.44-0.695c1.939-0.926,3.822-1.875,5.733-2.823
		c3.828-1.872,7.604-3.851,11.386-5.824l5.65-3.011c1.913-1.024,3.875-1.972,5.835-2.864c7.874-3.544,15.939-6.308,23.458-10.41
		c0.073-0.04,0.164-0.013,0.204,0.06c0.037,0.068,0.016,0.151-0.045,0.195c-7.042,4.982-15.073,8.343-22.584,12.28
		c-1.891,0.975-3.734,1.991-5.55,3.069l-5.572,3.232c-3.728,2.135-7.525,4.15-11.342,6.131c-1.91,0.979-3.865,1.928-5.788,2.848
		l-1.453,0.696c-0.465,0.22-0.925,0.452-1.382,0.689c-0.914,0.479-1.823,0.973-2.712,1.507c-3.56,2.131-6.879,4.716-9.932,7.583
		C9.464,46.877,6.6,50,4.286,53.434c-0.57,0.858-1.101,1.741-1.529,2.633C2.542,56.51,2.35,56.958,2.223,57.38
		c-0.143,0.397-0.143,0.877-0.135,0.849c-0.008-0.037-0.164-0.11-0.105-0.072c0.05,0.019,0.219,0.027,0.409-0.01
		C2.78,58.08,3.24,57.91,3.685,57.708c0.901-0.41,1.797-0.952,2.672-1.521c0.875-0.578,1.729-1.194,2.571-1.834
		c0.806-0.621,1.586-1.34,2.348-2.069c1.53-1.466,2.982-3.03,4.394-4.628c2.83-3.195,5.501-6.536,8.066-9.953
		c2.557-3.423,4.964-6.959,7.265-10.554c2.31-3.588,4.523-7.235,6.569-10.945c1.043-1.842,2.012-3.72,2.928-5.595
		c0.881-1.871,1.722-3.827,2.087-5.654c0.081-0.447,0.117-0.885,0.082-1.216c-0.045-0.342-0.125-0.47-0.177-0.498
		c-0.048-0.057-0.314-0.147-0.702-0.126c-0.378,0.012-0.828,0.099-1.281,0.226c-1.842,0.52-3.74,1.491-5.56,2.504
		c-3.662,2.062-7.196,4.454-10.716,6.865c-1.747,1.222-3.542,2.448-5.447,3.502c-1.896,1.054-3.944,1.931-6.088,2.274
		c-0.082,0.015-0.16-0.039-0.175-0.12C12.506,18.291,12.553,18.218,12.623,18.194z"/>
</g>
<g>
	<path fill="#010101" fill-opacity="0" d="M26.731,31.472c0.916-2.03,5.512-5.253,7.593-6.317c3.2-1.634,8.337-0.763,11.617,1.081
		c14.846,8.352-27.649,49.448,9.74,29.547"/>
	<path fill="#FFFFFF" d="M26.597,31.405c0.229-0.814,0.72-1.526,1.22-2.176c0.518-0.644,1.07-1.256,1.666-1.815
		c1.183-1.139,2.446-2.152,3.867-3.056c0.734-0.467,1.638-0.867,2.507-1.075c0.882-0.212,1.766-0.3,2.639-0.318
		c1.75-0.042,3.455,0.3,5.052,0.898c1.587,0.644,3.104,1.406,4.366,2.817c1.208,1.383,1.708,3.172,1.759,4.82
		c0.075,1.667-0.153,3.285-0.471,4.873c-0.333,1.584-0.725,3.154-1.182,4.705c-0.889,3.112-2.089,6.104-3.375,8.999
		c-0.624,1.456-1.257,2.897-1.827,4.332c-0.549,1.42-1.144,2.876-1.339,4.129c-0.052,0.299-0.075,0.584-0.058,0.771
		c0.019,0.193,0.046,0.239,0.017,0.219c-0.143-0.018,0.32,0.207,0.96,0.166c1.283-0.053,2.805-0.479,4.264-0.918
		c2.958-0.916,5.911-2.096,8.949-3.123c0.079-0.027,0.166,0.015,0.193,0.094c0.022,0.062-0.001,0.132-0.052,0.171
		c-2.57,1.937-5.284,3.638-8.229,5.06c-1.496,0.688-2.997,1.346-4.88,1.614c-0.481,0.054-0.992,0.095-1.593-0.008
		c-0.581-0.094-1.326-0.36-1.896-0.972c-0.577-0.604-0.8-1.357-0.871-1.943c-0.075-0.604-0.032-1.117,0.028-1.602
		c0.137-0.961,0.409-1.784,0.686-2.588c0.281-0.801,0.592-1.564,0.94-2.304c0.681-1.483,1.411-2.905,2.148-4.315
		c1.438-2.834,3-5.562,4.403-8.372c0.681-1.41,1.312-2.851,1.724-4.352c0.414-1.492,0.667-3.052,0.497-4.557
		c-0.168-1.5-0.839-2.89-1.951-3.713c-0.265-0.209-0.576-0.403-0.86-0.543c-0.311-0.162-0.648-0.305-0.994-0.432
		c-0.686-0.263-1.396-0.469-2.109-0.646c-2.829-0.655-5.895-1.047-8.315,0.147c-1.34,0.66-2.694,1.458-4.007,2.276
		c-1.283,0.857-2.64,1.673-3.608,2.872l-0.003,0.004c-0.053,0.065-0.149,0.076-0.215,0.023
		C26.599,31.526,26.581,31.462,26.597,31.405z"/>
</g>
<g>
	<path fill="#010101" fill-opacity="0" d="M70.669,45.041c-3.726,0.021-17.538,13.062-13.728,16.6
		c2.387,2.217,11.149-9.537,12.356-11.231c1.777-2.496,2.208-3.474,3.993-5.617c0.264-0.315,1.058-1.241,0.874-0.873
		c-1.204,2.408-3.401,4.205-4.618,6.74c-1.284,2.674-5.309,11.185-0.125,12.479c0.647,0.161,1.359,0.318,1.997,0.125
		c8.339-2.539,16.948-14.557,21.592-21.467c2.01-2.993,6.49-7.383,6.49-11.358c0-1.448-3.644,4.718-3.745,4.868
		c-1.91,2.865-12.524,22.738-6.489,24.96c3.719,1.371,12.263-5.981,13.479-9.358c0.343-0.955,0.472-2.483-0.375-3.246
		c-0.18-0.162-3.151-1.476-2.371-0.5c1.685,2.106,12.492-3.629,11.607,0.5c-0.496,2.313-8.364,10.856-6.365,12.854
		c3.088,3.088,13.015-6.246,14.353-8.61c0.787-1.394,1.493-2.832,2.246-4.244c0.219-0.41,0.832-1.664,0.624-1.248
		c-1.089,2.179-6.264,13.019-2.87,13.229c3.965,0.248,8.603-6.979,10.733-9.735c0.034-0.045,2.314-3.175,2.496-2.869
		c1.127,1.879-4.258,10.469-2.995,11.729c0.756,0.758,3.062-2.153,3.494-2.621c1.688-1.815,10.69-11.856,13.355-9.858
		c2.767,2.076-8.142,16.196,2.246,13.229c0.609-0.175,1.17-0.487,1.747-0.75c0.713-0.319,1.44-0.617,2.122-0.998
		c3.57-1.994,6.827-4.809,10.109-7.237c0.011-0.009,3.271-2.691,2.996-2.746c-2.611-0.522-9.499,4.869-10.858,6.864
		c-0.577,0.847-2.229,3.586-0.5,4.117c2.404,0.74,8.726-4.619,9.735-6.737c0.515-1.082,0.624-4.875,0.624-2.996
		c0,13.678,12.088,9.774,21.217,6.614"/>
	<path fill="#FFFFFF" stroke="#FFFFFF" stroke-linejoin="round" stroke-miterlimit="10" d="M70.674,45.141
		c-0.997,0.084-1.906,0.65-2.769,1.176c-0.862,0.55-1.682,1.17-2.475,1.82c-1.582,1.307-3.062,2.738-4.425,4.268
		c-1.352,1.531-2.626,3.16-3.54,4.949c-0.439,0.888-0.809,1.854-0.769,2.756c0.024,0.443,0.17,0.841,0.458,1.129
		c0.03,0.027,0.085,0.09,0.094,0.091c0.057,0.047,0.103,0.077,0.112,0.075c0.041,0.023,0.126,0.052,0.202,0.06
		c0.161,0.019,0.36-0.01,0.564-0.078c0.837-0.294,1.654-0.942,2.405-1.59c0.755-0.666,1.471-1.39,2.165-2.136
		c1.385-1.498,2.688-3.084,3.944-4.703c1.262-1.625,2.457-3.27,3.559-4.999c0.556-0.862,1.134-1.75,1.774-2.591
		c0.319-0.423,0.642-0.829,0.984-1.239c0.173-0.204,0.339-0.4,0.541-0.613c0.06-0.06,0.091-0.1,0.207-0.195
		c-0.712-0.329,1.45-0.016,1.138,0.765c-0.027,0.081-0.083,0.192-0.087,0.197l-0.178,0.343c-1.076,1.96-2.567,3.432-3.621,5.088
		c-0.261,0.413-0.501,0.831-0.708,1.26l-0.639,1.387c-0.411,0.927-0.788,1.863-1.107,2.811c-0.318,0.947-0.583,1.907-0.729,2.86
		c-0.143,0.944-0.172,1.911,0.077,2.694c0.244,0.786,0.768,1.291,1.562,1.534c0.175,0.054,0.452,0.118,0.666,0.162
		c0.222,0.043,0.433,0.072,0.621,0.079c0.184,0.003,0.349-0.023,0.475-0.059c0.253-0.08,0.486-0.16,0.697-0.239
		c1.812-0.688,3.51-1.765,5.091-2.987c1.583-1.229,3.061-2.617,4.465-4.081c2.805-2.936,5.325-6.166,7.703-9.495
		c1.216-1.672,2.317-3.329,3.538-5.084c1.265-1.71,2.592-3.254,3.711-4.908c1.102-1.628,2.079-3.412,2.123-5.117
		c0.004-0.056,0.001-0.13,0.005-0.048c0.021,0.085,0.005,0.13,0.131,0.338c0.091,0.209,0.549,0.443,0.785,0.398
		c0.412-0.058,0.348-0.119,0.383-0.115l-0.047,0.042c-0.113,0.109-0.269,0.298-0.41,0.48c-0.29,0.376-0.576,0.79-0.856,1.206
		c-0.56,0.837-1.101,1.704-1.632,2.577c-2.153,3.445-3.952,7.142-5.559,10.88c-0.788,1.875-1.507,3.779-2.064,5.706
		c-0.531,1.901-0.989,3.935-0.745,5.664c0.14,0.862,0.468,1.452,1.065,1.674c0.561,0.248,1.481,0.122,2.345-0.177
		c1.763-0.617,3.465-1.74,5.022-2.965c1.55-1.242,3.027-2.649,4.167-4.2c0.276-0.386,0.53-0.786,0.704-1.167
		c0.16-0.348,0.268-0.783,0.297-1.187c0.03-0.403-0.016-0.8-0.142-1.05c-0.032-0.061-0.064-0.118-0.101-0.163
		c-0.015-0.028-0.04-0.043-0.058-0.065c-0.067-0.061,0.09,0.064,0.045,0.031c-0.156-0.087-0.401-0.197-0.614-0.289
		c-0.221-0.095-0.445-0.185-0.662-0.26c-0.201-0.074-0.465-0.142-0.517-0.145l0.047-0.002c0.027-0.002,0.128-0.01,0.28-0.098
		c0.237-0.097,0.409-0.51,0.387-0.681c-0.016-0.224-0.037-0.224-0.063-0.292c-0.001-0.012-0.02-0.035-0.016-0.03
		c-0.011-0.013,0.045,0.054-0.023-0.022c0.043,0.049,0.105,0.111,0.066,0.065c-0.025-0.011,0.125,0.068,0.28,0.091
		c0.726,0.117,1.773-0.063,2.732-0.258c0.983-0.203,1.979-0.455,2.999-0.687c1.027-0.224,2.048-0.468,3.229-0.5
		c0.299-0.002,0.61,0.008,0.961,0.083c0.341,0.076,0.767,0.222,1.124,0.609c0.36,0.396,0.462,0.922,0.445,1.295
		c-0.013,0.392-0.082,0.693-0.218,1.043c-0.489,1.125-1.089,1.933-1.673,2.814c-1.177,1.716-2.394,3.37-3.445,5.088
		c-0.517,0.854-1.01,1.739-1.296,2.598c-0.143,0.416-0.194,0.857-0.128,1.039c0.051,0.103-0.006,0.06,0.208,0.237
		c0.084,0.063,0.253,0.158,0.408,0.199c0.666,0.198,1.628-0.04,2.496-0.397c0.885-0.367,1.75-0.865,2.585-1.41
		c1.67-1.102,3.244-2.398,4.715-3.785c0.733-0.695,1.446-1.42,2.086-2.172c0.321-0.385,0.611-0.74,0.817-1.138l0.736-1.352
		l1.439-2.734l0.345-0.673l0.171-0.343l0.084-0.17c0.54,0.313-1.149-0.825,1.216,0.694c0.182-0.264,0.034-0.041,0.062-0.074
		l-0.67,1.377c-0.87,1.848-1.684,3.729-2.35,5.64c-0.328,0.955-0.624,1.922-0.807,2.881c-0.09,0.478-0.15,0.956-0.141,1.394
		c0,0.438,0.133,0.815,0.256,0.879c0.06,0.097,0.566,0.111,0.974,0.027c0.423-0.082,0.85-0.25,1.264-0.469
		c0.83-0.439,1.604-1.064,2.328-1.745c2.915-2.762,5.048-6.335,7.754-9.554l0.289-0.309c0.125-0.109,0.174-0.197,0.462-0.363
		c0.074,0,0.293-0.243,0.786,0.111c0.247,0.328,0.094,0.14,0.16,0.235c0.039,0.078,0.097,0.233,0.112,0.308
		c0.047,0.186,0.066,0.359,0.069,0.52c0.007,0.643-0.129,1.174-0.269,1.701c-0.295,1.042-0.684,2.011-1.073,2.975l-1.174,2.856
		c-0.36,0.935-0.752,1.926-0.852,2.791c-0.026,0.202,0.017,0.399,0.024,0.388c-0.001,0.003-0.002-0.007-0.007-0.007
		c-0.085-0.075,0.02,0.014,0.02,0.013c0.002-0.004-0.047-0.044-0.076-0.047c-0.014-0.007-0.019-0.009-0.03-0.007
		c-0.024,0.001,0.033-0.001,0.102-0.03c0.309-0.123,0.712-0.458,1.057-0.785c0.717-0.666,1.342-1.484,2.075-2.244
		c1.406-1.519,2.845-3.015,4.35-4.448c1.512-1.427,3.065-2.823,4.836-4c0.901-0.562,1.82-1.154,3.063-1.29
		c0.611-0.061,1.437,0.167,1.8,0.906c0.299,0.676,0.22,1.276,0.146,1.821c-0.407,2.16-1.295,4.019-1.944,5.96
		c-0.331,0.961-0.641,1.934-0.78,2.896c-0.146,0.954-0.043,1.935,0.703,2.204c0.759,0.307,1.813,0.139,2.762-0.086
		c0.251-0.067,0.472-0.118,0.716-0.201c0.205-0.07,0.44-0.172,0.665-0.275c0.449-0.215,0.95-0.445,1.415-0.645
		c1.86-0.776,3.562-1.94,5.238-3.11c1.67-1.188,3.288-2.464,4.934-3.715l1.242-0.931c0.381-0.289,0.789-0.644,1.178-0.967
		l1.163-1.004c0.188-0.17,0.378-0.342,0.549-0.514l0.119-0.125l0.043-0.053c0.011,0.008,0.021-0.077-0.019,0.088
		c0.117,0.461,0.423,0.351,0.231,0.351l-0.096-0.012c-0.068-0.011-0.127-0.017-0.171-0.011c-0.869,0.006-1.865,0.433-2.747,0.875
		c-0.901,0.457-1.768,0.998-2.611,1.574c-1.664,1.166-3.313,2.444-4.636,3.944c-0.592,0.761-1.122,1.687-1.387,2.603
		c-0.124,0.455-0.141,0.949,0.116,1.194c0.06,0.066,0.145,0.113,0.232,0.159l0.129,0.048l0.189,0.042
		c0.197,0.021,0.425,0.022,0.663-0.023c0.946-0.172,1.866-0.662,2.729-1.182c0.866-0.531,1.693-1.135,2.481-1.783
		c0.789-0.648,1.544-1.342,2.233-2.088c0.341-0.375,0.673-0.763,0.942-1.176c0.285-0.4,0.387-0.852,0.485-1.361
		c0.093-0.498,0.158-1.006,0.215-1.516l0.084-0.771l0.014-0.104c-0.322-0.159,0.589-0.145,0.447,0.006l0.006,0.209l0.001,0.387
		c0.005,1.028,0.066,2.041,0.25,3.045c0.339,1.982,1.239,3.963,2.936,5.089c1.681,1.139,3.822,1.354,5.842,1.243
		c4.101-0.281,8.046-1.653,11.942-2.961c0.052-0.02,0.109,0.009,0.127,0.062c0.018,0.052-0.01,0.108-0.062,0.127
		c-3.89,1.34-7.826,2.752-11.989,3.073c-2.051,0.128-4.262-0.062-6.056-1.252c-1.812-1.18-2.771-3.272-3.134-5.307
		c-0.198-1.025-0.269-2.08-0.282-3.111l-0.004-0.387l-0.006-0.178c-0.139,0.039,0.73,0.098,0.407,0.025l-0.011,0.087l-0.078,0.769
		c-0.054,0.516-0.116,1.031-0.208,1.549c-0.085,0.498-0.221,1.08-0.538,1.53c-0.291,0.454-0.63,0.855-0.98,1.246
		c-0.704,0.775-1.466,1.486-2.266,2.153c-0.799,0.667-1.637,1.29-2.524,1.846c-0.893,0.542-1.822,1.064-2.912,1.277
		c-0.269,0.052-0.562,0.066-0.876,0.023l-0.189-0.041c-0.108-0.027-0.155-0.052-0.235-0.082c-0.142-0.067-0.286-0.149-0.404-0.271
		c-0.501-0.528-0.397-1.229-0.274-1.735c0.308-1.065,0.822-1.97,1.479-2.839c1.397-1.607,3.034-2.886,4.73-4.1
		c0.856-0.594,1.738-1.155,2.673-1.639c0.949-0.464,1.889-0.947,3.101-0.975c0.085-0.002,0.154,0.004,0.214,0.014l0.096,0.012
		c-0.142,0.014,0.276-0.115,0.378,0.424c-0.056,0.226-0.086,0.195-0.114,0.253l-0.079,0.098l-0.146,0.156
		c-0.191,0.194-0.382,0.371-0.576,0.548l-1.17,1.028c-0.402,0.338-0.77,0.667-1.208,1.005l-1.226,0.936
		c-1.629,1.258-3.242,2.551-4.923,3.769c-1.691,1.198-3.411,2.399-5.358,3.237c-0.482,0.211-0.917,0.416-1.396,0.648
		c-0.243,0.113-0.48,0.221-0.763,0.32c-0.243,0.085-0.524,0.156-0.771,0.223c-1.028,0.227-2.125,0.503-3.327,0.064
		c-0.605-0.226-1.089-0.842-1.218-1.441c-0.15-0.6-0.117-1.171-0.048-1.713c0.15-1.084,0.469-2.089,0.799-3.079
		c0.646-1.966,1.517-3.892,1.854-5.802c0.075-0.463,0.074-0.947-0.062-1.223c-0.102-0.225-0.431-0.383-0.827-0.34
		c-0.83,0.081-1.743,0.604-2.562,1.141c-1.662,1.117-3.188,2.498-4.663,3.91c-1.474,1.42-2.887,2.907-4.275,4.424
		c-0.697,0.728-1.322,1.562-2.112,2.31c-0.407,0.37-0.781,0.749-1.428,1.031c-0.17,0.063-0.37,0.13-0.653,0.1
		c-0.074-0.013-0.142-0.026-0.218-0.052c-0.086-0.032-0.197-0.096-0.249-0.134c-0.049-0.042,0.002,0.01-0.129-0.11
		c-0.044-0.051-0.095-0.105-0.126-0.158c-0.269-0.457-0.224-0.81-0.214-1.113c0.14-1.191,0.547-2.135,0.91-3.123l1.161-2.875
		c0.378-0.95,0.75-1.903,1.011-2.85c0.125-0.467,0.228-0.953,0.217-1.345c-0.001-0.097-0.015-0.181-0.032-0.246
		c-0.015-0.051-0.003-0.017-0.016-0.056c0.034,0.041-0.139-0.213,0.064,0.068c0.444,0.303,0.587,0.099,0.606,0.119
		c0.062-0.039-0.071,0.061-0.13,0.129l-0.239,0.258c-2.583,3.102-4.702,6.721-7.777,9.687c-0.774,0.731-1.61,1.428-2.602,1.965
		c-0.497,0.265-1.036,0.488-1.626,0.606c-0.291,0.06-0.606,0.092-0.92,0.085c-0.285,0-0.758-0.067-1.104-0.337
		c-0.361-0.262-0.562-0.646-0.662-0.971c-0.103-0.334-0.136-0.646-0.146-0.945c-0.016-0.594,0.058-1.145,0.154-1.68
		c0.199-1.07,0.504-2.082,0.84-3.08c0.68-1.988,1.497-3.904,2.372-5.793l0.676-1.41c0.054-0.086-0.058,0.062,0.143-0.232
		c2.338,1.577,0.62,0.496,1.132,0.868l-0.086,0.177l-0.172,0.35l-0.355,0.707l-1.427,2.75l-0.735,1.369
		c-0.271,0.521-0.635,0.973-0.971,1.381c-0.692,0.821-1.426,1.573-2.185,2.303c-1.521,1.449-3.134,2.799-4.902,3.979
		c-0.887,0.586-1.813,1.132-2.832,1.563c-1.016,0.395-2.156,0.814-3.52,0.474c-0.341-0.101-0.643-0.237-0.968-0.487
		c-0.095-0.07-0.127-0.105-0.178-0.149c-0.041-0.039-0.011-0.003-0.109-0.104l-0.113-0.128c-0.14-0.181-0.249-0.386-0.312-0.588
		c-0.23-0.823-0.039-1.442,0.119-1.999c0.365-1.104,0.893-2.029,1.433-2.943c1.089-1.811,2.31-3.492,3.451-5.187
		c0.553-0.833,1.157-1.722,1.48-2.499c0.057-0.128,0.1-0.337,0.098-0.462c0-0.14-0.026-0.147-0.018-0.14
		c0.035-0.021-0.379-0.156-0.808-0.125c-0.885,0.026-1.889,0.254-2.87,0.479c-0.991,0.232-1.992,0.495-3.027,0.719
		c-1.053,0.197-2.07,0.465-3.399,0.291c-0.347-0.074-0.709-0.148-1.134-0.492c-0.144-0.123-0.166-0.16-0.21-0.205
		c-0.108-0.129-0.089-0.114-0.138-0.178c-0.034-0.049-0.081-0.131-0.116-0.197c-0.048-0.129-0.101-0.188-0.113-0.478
		c-0.031-0.237,0.182-0.709,0.471-0.842c0.21-0.117,0.374-0.142,0.465-0.149c0.1-0.009,0.176-0.007,0.241-0.003
		c0.462,0.046,0.692,0.142,0.98,0.23c0.271,0.092,0.527,0.192,0.781,0.298c0.261,0.111,0.489,0.208,0.788,0.366
		c0.072,0.022,0.332,0.226,0.35,0.265c0.069,0.072,0.144,0.143,0.2,0.223c0.125,0.154,0.225,0.32,0.311,0.488
		c0.33,0.684,0.367,1.354,0.333,1.973c-0.047,0.625-0.179,1.207-0.44,1.803c-0.252,0.56-0.556,1.033-0.875,1.488
		c-1.296,1.785-2.832,3.254-4.483,4.604c-1.67,1.324-3.44,2.547-5.574,3.322c-1.059,0.343-2.309,0.682-3.704,0.162
		c-0.659-0.25-1.265-0.756-1.632-1.354c-0.38-0.593-0.553-1.223-0.656-1.818c-0.185-1.199-0.079-2.313,0.082-3.391
		c0.167-1.078,0.422-2.115,0.712-3.137c0.588-2.038,1.332-4,2.14-5.928c1.648-3.837,3.471-7.587,5.688-11.145
		c0.541-0.889,1.092-1.773,1.678-2.651c0.295-0.439,0.595-0.875,0.935-1.317c0.176-0.223,0.343-0.439,0.599-0.691
		c0.067-0.064,0.141-0.132,0.245-0.211c0.139-0.069,0.186-0.208,0.729-0.277c0.301-0.051,0.821,0.221,0.947,0.482
		c0.162,0.262,0.161,0.372,0.191,0.52c0.023,0.21,0.011,0.266,0.011,0.338c-0.028,1.228-0.387,2.353-0.84,3.369
		c-0.458,1.02-1.027,1.945-1.625,2.831c-1.196,1.764-2.563,3.357-3.749,4.965c-1.131,1.632-2.316,3.412-3.528,5.076
		c-2.453,3.355-5.056,6.623-7.987,9.623c-1.468,1.498-3.021,2.926-4.712,4.209c-1.691,1.276-3.526,2.424-5.585,3.182
		c-0.273,0.099-0.529,0.183-0.769,0.256c-0.371,0.109-0.722,0.139-1.054,0.13c-0.327-0.015-0.627-0.063-0.911-0.122
		c-0.291-0.064-0.517-0.117-0.835-0.215c-0.588-0.188-1.183-0.512-1.655-0.987c-0.476-0.473-0.798-1.073-0.977-1.668
		c-0.354-1.204-0.263-2.358-0.096-3.438c0.181-1.086,0.48-2.117,0.83-3.121c0.351-1.003,0.757-1.979,1.192-2.932l0.672-1.418
		c0.247-0.498,0.527-0.971,0.828-1.424c1.209-1.795,2.714-3.25,3.654-4.911l0.185-0.339c0.029-0.052-0.002,0-0.004,0.021
		c-0.271,0.68,1.782,1.04,1.033,0.755c0.015-0.014-0.043,0.039-0.074,0.071c-0.156,0.158-0.328,0.352-0.492,0.54
		c-0.327,0.375-0.654,0.771-0.963,1.164c-0.625,0.791-1.189,1.621-1.768,2.481c-1.149,1.729-2.414,3.403-3.715,5.011
		c-1.304,1.615-2.652,3.195-4.098,4.699c-0.725,0.75-1.475,1.48-2.281,2.165c-0.821,0.666-1.646,1.353-2.776,1.722
		c-0.287,0.084-0.609,0.139-0.961,0.086c-0.179-0.031-0.344-0.08-0.525-0.188c-0.106-0.062-0.162-0.109-0.204-0.146
		c-0.096-0.076-0.12-0.119-0.182-0.181c-0.436-0.46-0.637-1.104-0.645-1.687c-0.006-1.182,0.453-2.19,0.939-3.125
		c1.021-1.862,2.364-3.472,3.781-4.988c1.428-1.51,2.962-2.913,4.599-4.188c0.82-0.634,1.667-1.238,2.559-1.771
		c0.896-0.508,1.826-1.062,2.909-1.129c0.055-0.003,0.103,0.039,0.105,0.094C70.772,45.089,70.728,45.136,70.674,45.141z"/>
</g>
<g>
	<path fill="#010101" fill-opacity="0" d="M85.272,38.301c14.076,3.878,26.104-3.005,38.44-8.487"/>
	<path fill="#FFFFFF" d="M85.311,38.156c3.441,0.09,6.659,0.1,9.861-0.261c3.175-0.374,6.414-0.636,9.608-1.471
		c3.188-0.813,6.333-1.927,9.453-3.137c3.142-1.162,6.249-2.464,9.418-3.61c0.078-0.028,0.165,0.012,0.193,0.09
		c0.025,0.071-0.006,0.149-0.071,0.184c-2.969,1.582-5.93,3.166-8.936,4.71c-3.026,1.495-6.118,2.916-9.358,4.06
		c-3.226,1.121-6.619,2.219-10.16,2.171c-3.506-0.019-7.051-0.744-10.085-2.444c-0.075-0.041-0.103-0.134-0.063-0.209
		C85.198,38.185,85.255,38.156,85.311,38.156z"/>
</g>
<g>
	<path fill="#010101" fill-opacity="0" d="M126.832,37.427c0.904-0.326,1.41,1.292,0.749,1.623c-1.241,0.619-3.09-1.393-1.747-2.247
		c1.597-1.017,7.215-3.274,3.37,0.999"/>
	<path fill="#FFFFFF" stroke="#FFFFFF" stroke-linejoin="round" stroke-miterlimit="10" d="M126.818,37.379
		c0.118-0.088,0.316-0.156,0.506-0.129c0.193,0.026,0.373,0.127,0.515,0.251c0.286,0.259,0.461,0.603,0.508,1.028
		c0.015,0.212-0.016,0.468-0.185,0.725c-0.094,0.13-0.189,0.231-0.367,0.328l-0.095,0.059l-0.182,0.077
		c-0.45,0.162-0.908,0.108-1.298-0.018c-0.394-0.129-0.74-0.343-1.026-0.637c-0.286-0.292-0.545-0.654-0.657-1.17
		c-0.132-0.51,0.095-1.219,0.502-1.579c0.097-0.096,0.196-0.171,0.297-0.242l0.221-0.143l0.42-0.243
		c1.149-0.547,2.239-1.029,3.68-1.092c0.189,0.002,0.388,0.009,0.639,0.076c0.125,0.037,0.268,0.087,0.42,0.197
		c0.153,0.105,0.298,0.303,0.351,0.494c0.099,0.392-0.015,0.627-0.091,0.811c-0.088,0.184-0.186,0.329-0.292,0.461
		c-0.435,0.509-0.91,0.882-1.444,1.204l-0.012,0.007c-0.023,0.014-0.053,0.007-0.067-0.017c-0.011-0.019-0.008-0.042,0.005-0.058
		c0.386-0.442,0.77-0.896,1.061-1.399c0.133-0.245,0.281-0.539,0.208-0.779c-0.091-0.233-0.442-0.238-0.71-0.214
		c-1.147,0.161-2.245,0.665-3.281,1.193c-0.251,0.138-0.534,0.272-0.73,0.448c-0.201,0.181-0.292,0.453-0.246,0.723
		c0.098,0.543,0.549,1.006,1.059,1.232c0.258,0.113,0.55,0.156,0.818,0.091c0.3-0.051,0.463-0.269,0.473-0.562
		c0.043-0.526-0.385-1.242-0.972-1.027c-0.025,0.009-0.052-0.003-0.062-0.028c-0.007-0.021,0-0.042,0.017-0.055L126.818,37.379z"/>
</g>
<g>
	<path fill="#010101" fill-opacity="0" d="M231.001,13.384c0.031,1.718-3.24-1.145-3.621,0c-0.334,1.001,1.576,1.838,2.173,1.932
		c3.028,0.479,6.831,0.209,9.658-0.482c5.78-1.416,10.988-4.879,15.211-8.935c0.807-0.774,2.979-3.381,3.622-4.346
		c0.141-0.212,0.479-0.819,0.241-0.724c-4.087,1.635-4.928,19.953-5.794,23.42c-1.544,6.174-2.372,8.326-5.555,13.521
		c-5.21,8.51-12.005,14.68-20.765,19.316c-2.131,1.128-5.388,2.947-7.968,2.173c-0.931-0.278,0.467-2.024,1.208-2.655
		c4.039-3.44,4.812-3.612,9.175-6.037"/>
	<path fill="#FFFFFF" d="M231.151,13.392c0.015,0.141,0.026,0.435-0.186,0.621c-0.219,0.189-0.47,0.178-0.662,0.169
		c-0.398-0.034-0.739-0.144-1.075-0.249c-0.333-0.105-0.659-0.217-0.964-0.288c-0.15-0.034-0.3-0.058-0.402-0.051
		c-0.054,0.001-0.08,0.018-0.08,0.021c0.013,0.011,0.061-0.016,0.087-0.043c0.025,0.047,0.019,0.1,0.188,0.276
		c0.156,0.155,0.409,0.309,0.673,0.43c0.264,0.12,0.564,0.225,0.82,0.279c0.072,0.014,0.093,0.016,0.156,0.019l0.258,0.021
		c0.174,0.016,0.344,0.028,0.502,0.033c2.629,0.107,5.344-0.184,7.889-0.794c5.107-1.292,9.702-4.173,13.824-7.569
		c0.507-0.429,1.044-0.863,1.527-1.294c0.442-0.4,0.924-0.921,1.39-1.399c0.468-0.49,0.93-0.991,1.379-1.496
		c0.428-0.481,0.95-1.091,1.083-1.352c0,0.008-0.007,0.028-0.012,0.105c0.031,0.036-0.108,0.325,0.381,0.695
		c0.127,0.11,0.458,0.124,0.49,0.106c0.059-0.006,0.118-0.021,0.171-0.045c0.071-0.031-0.015,0.006-0.014,0.005
		c-0.089,0.033-0.163,0.066-0.175,0.076c-0.06,0.021-0.187,0.108-0.279,0.183c-0.203,0.161-0.396,0.385-0.574,0.631
		c-0.359,0.496-0.66,1.083-0.929,1.688c-0.517,1.225-0.908,2.535-1.23,3.86c-0.625,2.659-1.011,5.387-1.296,8.122
		c-0.146,1.368-0.265,2.739-0.37,4.117c-0.134,1.391-0.173,2.729-0.44,4.215c-0.555,2.701-1.091,5.482-2.184,8.165
		c-1.095,2.688-2.503,5.075-3.982,7.487c-2.999,4.792-6.82,9.142-11.317,12.626c-2.262,1.721-4.639,3.281-7.131,4.61
		c-1.263,0.672-2.476,1.278-3.785,1.888c-1.319,0.582-2.73,1.118-4.327,1.295c-0.794,0.078-1.652,0.059-2.489-0.201l-0.156-0.049
		c-0.238-0.088-0.031-0.003-0.289-0.121c-0.33-0.173-0.553-0.432-0.685-0.76c-0.207-0.642-0.037-0.984,0.041-1.244
		c0.207-0.513,0.452-0.824,0.702-1.146c0.253-0.31,0.516-0.589,0.809-0.857c0.322-0.293,0.594-0.479,0.87-0.69
		c0.562-0.418,1.125-0.829,1.705-1.229c1.147-0.812,2.399-1.526,3.664-2.118c1.262-0.599,2.521-1.147,3.791-1.703
		c0.076-0.033,0.165,0.002,0.198,0.078c0.029,0.066,0.005,0.145-0.053,0.185c-1.138,0.79-2.318,1.524-3.458,2.282
		c-1.142,0.756-2.181,1.59-3.199,2.485c-0.507,0.447-1.008,0.913-1.502,1.382c-0.245,0.238-0.521,0.475-0.688,0.668
		c-0.194,0.219-0.384,0.463-0.543,0.705c-0.156,0.234-0.296,0.506-0.323,0.645c-0.033,0.061,0.058,0.078-0.028-0.234
		c-0.069-0.167-0.165-0.294-0.342-0.387c-0.186-0.072,0.106,0.033-0.051-0.023l0.094,0.018c0.499,0.094,1.047,0.082,1.615-0.023
		c1.143-0.21,2.317-0.744,3.473-1.357c1.159-0.621,2.379-1.316,3.514-2.006c2.293-1.41,4.526-2.902,6.594-4.601
		c4.19-3.317,7.871-7.248,10.929-11.672c1.496-2.226,2.986-4.555,4.149-6.902c1.158-2.364,1.997-4.954,2.792-7.592
		c0.335-1.206,0.553-2.622,0.77-3.965l0.623-4.095c0.416-2.733,0.805-5.473,1.357-8.203c0.274-1.365,0.574-2.732,1.031-4.089
		c0.227-0.681,0.489-1.359,0.875-2.025c0.195-0.333,0.423-0.662,0.722-0.974c0.161-0.159,0.299-0.296,0.538-0.448
		c0.131-0.087,0.213-0.129,0.282-0.165c0.039-0.02-0.008-0.001,0.103-0.051c0.074-0.028,0.154-0.05,0.234-0.062
		c0.053-0.023,0.405,0.002,0.553,0.114c0.522,0.4,0.389,0.735,0.416,0.814c-0.008,0.119-0.025,0.182-0.037,0.231
		c-0.104,0.354-0.183,0.476-0.281,0.679c-0.11,0.207-0.211,0.358-0.31,0.515c-0.199,0.308-0.399,0.599-0.603,0.888
		c-0.406,0.577-0.82,1.141-1.246,1.701c-0.432,0.567-0.849,1.094-1.373,1.677c-0.506,0.53-0.984,1.029-1.51,1.513
		c-2.066,1.941-4.371,3.665-6.898,5.024c-2.518,1.373-5.236,2.419-8.092,2.945c-1.425,0.272-2.854,0.378-4.282,0.406
		c-1.431,0.024-2.85-0.057-4.284-0.301c-0.185-0.028-0.358-0.061-0.524-0.096l-0.254-0.05c-0.107-0.019-0.255-0.057-0.349-0.09
		c-0.406-0.138-0.741-0.314-1.078-0.531c-0.331-0.221-0.657-0.465-0.941-0.844c-0.138-0.189-0.27-0.425-0.319-0.72
		c-0.021-0.154-0.029-0.282,0.008-0.47c0.021-0.112,0.031-0.111,0.046-0.164c0.054-0.141,0.076-0.183,0.142-0.277
		c0.121-0.174,0.325-0.29,0.5-0.334c0.167-0.036,0.315-0.032,0.433-0.014c0.241,0.037,0.426,0.108,0.604,0.18
		c0.348,0.148,0.653,0.316,0.958,0.474c0.301,0.151,0.601,0.317,0.884,0.399c0.303,0.075,0.423,0.075,0.469-0.303
		c0.01-0.082,0.085-0.141,0.167-0.131c0.071,0.009,0.125,0.065,0.131,0.134L231.151,13.392z"/>
</g>
<g>
	<path fill="#010101" fill-opacity="0" d="M270.6,13.867c-3.549,11.325-7.349,23.205-6.276,35.252
		c0.388,4.367,2.414,11.039,2.414,9.418"/>
	<path fill="#FFFFFF" d="M270.6,13.867c-0.562,3.871-1.412,7.646-2.207,11.399c-0.371,1.884-0.811,3.742-1.14,5.618
		c-0.364,1.867-0.713,3.731-0.959,5.605c-0.548,3.738-0.905,7.485-0.898,11.257c-0.002,0.955,0.025,1.87,0.092,2.805
		c0.058,0.938,0.162,1.887,0.281,2.833c0.1,0.952,0.243,1.9,0.384,2.854c0.07,0.477,0.149,0.951,0.241,1.423
		c0.043,0.237,0.089,0.474,0.148,0.704c0.03,0.113,0.063,0.23,0.11,0.328c0.024,0.131,0.06-0.041,0.084-0.156
		c0.009,0.061,0.02,0.121,0.016,0.188c-0.007,0.026,0.004,0.086-0.08,0.106c-0.071-0.006-0.087-0.04-0.118-0.062
		c-0.095-0.101-0.16-0.205-0.227-0.312c-0.132-0.213-0.249-0.433-0.363-0.649c-0.219-0.442-0.418-0.893-0.612-1.345
		c-0.385-0.905-0.706-1.831-1.023-2.764c-0.295-0.938-0.557-1.888-0.787-2.857c-0.239-0.973-0.358-1.983-0.484-2.954
		c-0.454-3.94-0.321-7.941,0.269-11.838c0.604-3.897,1.561-7.709,2.814-11.399C267.38,20.955,268.854,17.364,270.6,13.867z"/>
</g>
<g>
	<path fill="#010101" fill-opacity="0" d="M235.709,35.292c18.473,7.375,25.34,0,42.857,0.063"/>
	<path fill="#FFFFFF" d="M235.709,35.292c3.598,0.767,7.115,1.486,10.625,1.767c3.512,0.277,6.974,0.096,10.474-0.41
		c3.498-0.486,7.07-1.214,10.74-1.556c3.659-0.373,7.394-0.38,11.021,0.263c-3.631,0.608-7.148,1.258-10.65,2.049
		c-3.498,0.793-7.007,1.694-10.698,2.215c-3.678,0.525-7.544,0.538-11.218-0.252C242.322,38.617,238.846,37.211,235.709,35.292z"/>
</g>
<g>
	<path fill="#FFFFFF" fill-opacity="0" stroke="#FFFFFF" stroke-linejoin="round" stroke-miterlimit="10" d="M277.965,45.74
		c-6.229,14.732,0.62,15.863,3.785,14.314c5.198-2.548,8.843-11.812,8.09-12.943c-0.994-1.49-3.486,14.393,2.094,14.063
		c9.239-0.545,10.883-11.54,12.314-18.701c0.513-2.566,0.54-4.906,0.725-7.484c0.041-0.584,0.598-2.266,0.482-1.69
		c-0.741,3.704-1.528,7.435-2.415,11.106c-2.485,10.297,1.509-6.595-1.69,7.002c-4.858,20.652-4.158-0.84,6.475-3.342
		c2.612-0.613,7.393,0.838,8.256,3.428c3.294,9.881-17.079,10.875-18.109,9.33c-0.935-1.402,3.273-1.002,7.727-1.447
		c3.868-0.387,7.793-0.859,11.591-1.689c1.552-0.34,16.777-10.979,10.305-11.901c-6.208-0.887-8.149,13.344-1.207,14.004
		c4.122,0.394,8.864-4.737,10.382-8.209c1.376-3.144-3.099-3.863-2.414-3.863c2.299,0,3.403,0.729,6.036,0.242
		c1.902-0.353,5.498-2.504,7.485-2.174c0.031,0.006-2.731,3.586-2.897,3.862c-1.618,2.699-4.23,6.25-2.896,9.361
		c1.492,3.48,6.878,0.18,8.451-0.482"/>
	<path fill="#FFFFFF" stroke="#FFFFFF" stroke-linejoin="round" stroke-miterlimit="10" d="M278.034,45.77
		c-1.091,2.734-2.056,5.565-2.325,8.479c-0.114,1.438-0.045,2.952,0.609,4.19c0.63,1.262,2.027,1.914,3.406,1.787
		c1.395-0.065,2.637-0.838,3.719-1.773c1.078-0.941,1.996-2.077,2.803-3.279c0.803-1.208,1.498-2.492,2.076-3.82
		c0.287-0.664,0.546-1.342,0.755-2.024c0.103-0.341,0.194-0.685,0.26-1.022c0.063-0.324,0.104-0.701,0.063-0.893
		c-0.021-0.062,0.008-0.002-0.002-0.012c0.024,0.07,0.25,0.175,0.373,0.134c0.074-0.017,0.117-0.043,0.129-0.05
		c0.029-0.021,0.037-0.028,0.035-0.025c0-0.008-0.098,0.172-0.144,0.309c-0.112,0.303-0.201,0.646-0.276,0.992
		c-0.152,0.694-0.258,1.412-0.338,2.131c-0.156,1.438-0.216,2.894-0.132,4.326c0.093,1.42,0.304,2.879,0.904,4.045
		c0.3,0.576,0.72,1.021,1.221,1.188c0.256,0.087,0.517,0.105,0.834,0.078c0.386-0.027,0.687-0.071,1.041-0.129
		c1.366-0.241,2.654-0.791,3.746-1.625c1.097-0.832,1.996-1.924,2.722-3.133c1.451-2.437,2.274-5.256,2.924-8.094
		c0.332-1.423,0.613-2.864,0.898-4.316c0.309-1.458,0.523-2.836,0.632-4.301l0.146-2.196l0.068-1.11l0.036-0.558
		c0.007-0.191,0.052-0.478,0.095-0.657c0.09-0.4,0.194-0.762,0.318-1.143c0.033-0.099,0.061-0.185,0.115-0.317
		c0.434-0.125-0.9,0.113,1.062-0.431c0.821,1.35,0.215,0.558,0.393,0.855l-0.031,0.162l-0.11,0.543l-0.441,2.173
		c-0.603,2.904-1.246,5.799-1.938,8.683l-0.523,2.157l-0.133,0.541l-0.068,0.272l-0.036,0.14l-0.024,0.089
		c-2.928-0.381-0.777-0.395-1.437-0.4l0.251-1.098l0.126-0.541l0.063-0.271l0.031-0.138c-0.304-0.119,2.745,0.627,1.445,0.354
		l-0.016,0.068l-0.254,1.08l-0.508,2.16c-0.688,2.87-1.357,5.771-2.272,8.629c-0.239,0.721-0.468,1.422-0.824,2.168
		c-0.048,0.096-0.097,0.19-0.164,0.299c-0.032,0.055-0.071,0.113-0.125,0.182c-0.079,0.071-0.075,0.158-0.414,0.314
		c-0.187,0.123-0.714-0.002-0.84-0.234c-0.121-0.161-0.142-0.27-0.159-0.333c-0.033-0.144-0.031-0.215-0.033-0.291
		c-0.002-0.144,0.008-0.256,0.021-0.367c0.054-0.431,0.145-0.805,0.245-1.184c0.413-1.495,1.007-2.899,1.733-4.245
		c1.45-2.65,3.553-5.18,6.527-6.395c0.746-0.291,1.479-0.518,2.338-0.572c0.81-0.053,1.598,0.023,2.365,0.172
		c1.528,0.311,3.024,0.872,4.289,1.919c0.617,0.516,1.191,1.247,1.416,2.088c0.223,0.733,0.369,1.577,0.312,2.388
		c-0.067,1.67-1.012,3.205-2.211,4.215c-1.202,1.041-2.606,1.722-4.028,2.252c-1.43,0.527-2.9,0.885-4.384,1.144
		c-1.483,0.253-2.981,0.405-4.491,0.438c-0.754,0.015-1.512-0.002-2.279-0.08c-0.385-0.041-0.771-0.097-1.18-0.209
		c-0.207-0.065-0.414-0.119-0.678-0.308c-0.061-0.04-0.143-0.123-0.209-0.211l-0.096-0.16c-0.072-0.141-0.146-0.344-0.127-0.559
		c0.006-0.235,0.146-0.447,0.273-0.575c0.131-0.119,0.258-0.193,0.373-0.245c0.232-0.106,0.438-0.155,0.64-0.198
		c0.401-0.082,0.782-0.123,1.161-0.154c0.755-0.062,1.496-0.09,2.234-0.121c1.48-0.061,2.93-0.137,4.396-0.299
		c2.936-0.295,5.861-0.642,8.752-1.172c0.703-0.123,1.488-0.281,2.113-0.426c0.552-0.23,1.23-0.656,1.83-1.033
		c1.229-0.789,2.43-1.642,3.596-2.529c1.165-0.893,2.299-1.824,3.36-2.823c0.529-0.501,1.041-1.019,1.505-1.565
		c0.458-0.543,0.896-1.129,1.118-1.73c0.233-0.633,0.074-1.021-0.572-1.227c-0.623-0.197-1.328-0.23-1.95-0.049
		c-1.288,0.361-2.252,1.527-2.85,2.791c-0.608,1.28-0.917,2.715-0.964,4.143c-0.036,1.423,0.192,2.884,0.863,4.111
		c0.647,1.238,1.895,2.09,3.275,2.17c1.4,0.118,2.784-0.433,4.008-1.172c2.433-1.544,4.462-3.809,5.812-6.361
		c0.332-0.627,0.587-1.315,0.416-1.944c-0.149-0.634-0.684-1.134-1.289-1.479c-0.305-0.177-0.631-0.319-0.971-0.449
		c-0.102-0.045-0.135-0.038-0.315-0.141c-0.15-0.697,0.271-0.354,0.176-0.447h0.085l0.139,0.002
		c0.183,0.002,0.374,0.014,0.564,0.025c0.755,0.053,1.49,0.193,2.213,0.295c1.428,0.203,2.918,0.114,4.264-0.414
		c1.376-0.5,2.724-1.136,4.169-1.547c0.362-0.101,0.73-0.188,1.11-0.234c0.189-0.024,0.382-0.039,0.577-0.037
		c0.097,0.001,0.195,0.006,0.294,0.016l0.146,0.02c0.294,0.144,0.11,0.192,0.106,0.326l-0.042,0.059l-1.348,1.767l-1.341,1.763
		c-0.397,0.588-0.786,1.248-1.176,1.864c-0.768,1.255-1.513,2.538-1.944,3.935c-0.439,1.369-0.463,2.957,0.333,4.173
		c0.4,0.59,1.09,0.923,1.807,0.97c0.718,0.059,1.448-0.079,2.149-0.281c1.416-0.404,2.721-1.104,4.07-1.722
		c0.038-0.019,0.083-0.001,0.1,0.037c0.018,0.038,0.001,0.082-0.036,0.099l-0.005,0.002c-1.327,0.622-2.643,1.342-4.075,1.764
		c-0.713,0.212-1.46,0.361-2.221,0.308c-0.755-0.04-1.529-0.399-1.973-1.047c-0.865-1.296-0.839-2.962-0.4-4.377
		c0.433-1.441,1.179-2.747,1.939-4.015c0.395-0.637,0.75-1.258,1.174-1.896l1.33-1.777l1.327-1.771l0.038-0.055
		c0.002,0.106-0.088,0.08,0.13,0.232l-0.128-0.015c-0.085-0.009-0.172-0.013-0.259-0.013c-0.176,0-0.353,0.016-0.528,0.039
		c-0.354,0.047-0.706,0.133-1.055,0.233c-1.4,0.411-2.734,1.051-4.131,1.573c-1.411,0.566-2.975,0.671-4.465,0.472
		c-0.742-0.099-1.463-0.229-2.184-0.272c-0.178-0.01-0.356-0.02-0.543-0.02l-0.139-0.002h-0.054c-0.12-0.088,0.188,0.242,0.09-0.405
		c-0.018-0.014,0.127,0.048,0.197,0.072c0.353,0.131,0.707,0.282,1.043,0.474c0.662,0.373,1.327,0.947,1.538,1.778
		c0.221,0.837-0.096,1.642-0.437,2.304c-0.677,1.353-1.562,2.575-2.557,3.697c-0.998,1.118-2.128,2.131-3.411,2.939
		c-1.273,0.785-2.777,1.412-4.357,1.299c-0.797-0.057-1.574-0.295-2.245-0.738c-0.669-0.439-1.203-1.059-1.585-1.738
		c-0.763-1.375-1.009-2.941-0.986-4.459c0.039-1.523,0.349-3.046,0.998-4.445c0.643-1.368,1.699-2.741,3.312-3.219
		c0.8-0.229,1.635-0.199,2.419,0.047c0.39,0.125,0.854,0.369,1.088,0.862c0.23,0.495,0.125,0.998-0.009,1.384
		c-0.293,0.791-0.77,1.401-1.251,1.99c-0.489,0.584-1.016,1.123-1.558,1.643c-1.085,1.035-2.232,1.988-3.41,2.901
		c-1.179,0.911-2.387,1.78-3.641,2.595c-0.651,0.405-1.215,0.8-2.027,1.144c-0.811,0.199-1.478,0.33-2.229,0.47
		c-2.924,0.555-5.874,0.924-8.819,1.237c-1.473,0.173-2.978,0.265-4.45,0.332c-0.738,0.037-1.475,0.069-2.191,0.132
		c-0.357,0.033-0.713,0.074-1.035,0.145c-0.16,0.033-0.314,0.078-0.418,0.127c-0.055,0.023-0.083,0.05-0.092,0.054
		c0.009,0.006,0.027-0.044,0.037-0.088c0.002-0.03-0.008-0.052-0.002-0.027c0.013,0.021,0.07,0.122,0.045,0.078
		c-0.004-0.019-0.028-0.028-0.01-0.019c0.034,0.028,0.188,0.093,0.332,0.131c0.305,0.082,0.654,0.133,1.004,0.168
		c0.703,0.066,1.428,0.078,2.149,0.059c1.446-0.039,2.897-0.195,4.327-0.449c1.427-0.258,2.838-0.611,4.182-1.117
		c1.337-0.506,2.63-1.156,3.665-2.066c1.038-0.898,1.745-2.102,1.795-3.42c0.037-0.667-0.069-1.305-0.278-1.982
		c-0.164-0.597-0.547-1.082-1.055-1.512c-1.022-0.842-2.386-1.363-3.744-1.621c-0.683-0.127-1.38-0.186-2.047-0.136
		c-0.619,0.034-1.321,0.245-1.945,0.5c-2.562,1.059-4.489,3.354-5.825,5.854c-0.669,1.258-1.222,2.602-1.583,3.961
		c-0.088,0.336-0.165,0.683-0.199,0.986c-0.008,0.072-0.012,0.145-0.011,0.186c-0.001,0.018,0.005,0.037-0.005-0.016
		c-0.01-0.02-0.012-0.084-0.106-0.207c-0.096-0.193-0.573-0.307-0.715-0.203c-0.254,0.12-0.188,0.133-0.21,0.133l0.031-0.047
		c0.029-0.05,0.064-0.119,0.099-0.188c0.278-0.591,0.513-1.3,0.729-1.983c0.867-2.783,1.509-5.654,2.175-8.539l0.507-2.158
		l0.252-1.08l0.016-0.066c-1.289-0.328,1.772,0.365,1.449,0.327l-0.031,0.133l-0.062,0.269l-0.125,0.539l-0.243,1.065
		c-0.662,0.013,1.458,0.129-1.446-0.323l0.012-0.045l0.033-0.128l0.066-0.267l0.131-0.535l0.521-2.153
		c0.688-2.867,1.326-5.745,1.924-8.631l0.441-2.173l0.109-0.543l0.021-0.11c0.183,0.253-0.406-0.589,0.399,0.721
		c1.926-0.52,0.581-0.229,0.994-0.315l-0.073,0.204c-0.104,0.322-0.205,0.671-0.277,0.993c-0.037,0.182-0.055,0.261-0.062,0.439
		l-0.036,0.548l-0.066,1.103l-0.146,2.23c-0.105,1.485-0.348,3.034-0.652,4.468c-0.285,1.449-0.568,2.911-0.908,4.368
		c-0.702,2.9-1.577,5.836-3.191,8.481c-0.809,1.312-1.831,2.538-3.105,3.481c-1.271,0.951-2.785,1.571-4.334,1.824
		c-0.375,0.061-0.809,0.112-1.162,0.133c-0.416,0.032-0.909,0.004-1.353-0.158c-0.917-0.325-1.536-1.082-1.901-1.81
		c-0.735-1.491-0.902-3.042-0.994-4.557c-0.068-1.521,0.006-3.028,0.195-4.526c0.098-0.748,0.221-1.494,0.401-2.24
		c0.092-0.375,0.192-0.746,0.344-1.135c0.095-0.203,0.136-0.378,0.386-0.658c0.029-0.033,0.069-0.072,0.14-0.117
		c0.049-0.035,0.134-0.08,0.254-0.104c0.214-0.065,0.532,0.087,0.623,0.22c0.123,0.123,0.214,0.365,0.229,0.483
		c0.08,0.542-0.014,0.909-0.086,1.308c-0.082,0.387-0.189,0.756-0.308,1.119c-0.239,0.727-0.522,1.428-0.836,2.113
		c-0.629,1.37-1.374,2.682-2.233,3.919c-0.863,1.233-1.843,2.401-3.014,3.383c-0.585,0.489-1.221,0.929-1.914,1.276
		c-0.706,0.357-1.486,0.559-2.273,0.589s-1.601-0.119-2.309-0.506c-0.711-0.382-1.275-1.007-1.622-1.711
		c-0.692-1.429-0.692-3.009-0.536-4.485c0.368-2.98,1.428-5.788,2.602-8.497c0.017-0.038,0.061-0.056,0.099-0.039
		C278.032,45.688,278.049,45.73,278.034,45.77z"/>
</g>
<g>
	<path fill="#010101" fill-opacity="0" d="M379.718,25.757c-3.646-3.372-1.2-13.652,4.829-12.557
		c2.536,0.463,4.036,6.08,8.692,7.244c6.967,1.742,14.282-0.941,20.28-4.346c1.296-0.734,6.521-3.671,6.521-6.036
		c0-1.188-2.556,0.654-3.139,1.69c-2.021,3.59-1.532,8.986-0.726,12.797c3.176,14.972,1.89,31.568-12.797,40.322
		c-9.87,5.883-40.601,7.994-35.493-10.865c0.584-2.158,2.253-3.863,3.38-5.795"/>
	<path fill="#FFFFFF" d="M379.613,25.865c-0.734-0.588-1.278-1.432-1.604-2.326c-0.326-0.9-0.479-1.854-0.51-2.81
		c-0.045-1.905,0.341-3.864,1.384-5.591c0.524-0.854,1.222-1.663,2.153-2.236c0.924-0.576,2.081-0.849,3.173-0.762
		c0.137,0.007,0.272,0.022,0.407,0.041l0.101,0.013l0.147,0.031l0.17,0.037c0.403,0.12,0.678,0.256,0.934,0.415
		c0.519,0.318,0.898,0.689,1.252,1.05c0.698,0.726,1.24,1.461,1.811,2.139c1.114,1.359,2.304,2.517,3.688,3.061
		c0.355,0.146,0.667,0.242,1.086,0.327c0.472,0.106,0.812,0.166,1.248,0.229c0.836,0.119,1.684,0.178,2.532,0.178
		c3.405-0.006,6.823-0.846,10.111-2.092c1.646-0.623,3.278-1.329,4.87-2.138c1.601-0.809,3.158-1.662,4.559-2.691
		c0.69-0.513,1.35-1.078,1.814-1.699c0.219-0.307,0.393-0.633,0.421-0.904l0.008-0.052c0.002,0.013,0.002-0.064,0.005,0.022
		l-0.001-0.043c-0.007-0.111,0.001,0.037,0.03,0.067c0.044,0.127,0.277,0.219,0.281,0.19c0.019-0.017-0.188,0.022-0.345,0.095
		c-0.687,0.312-1.436,0.908-1.894,1.491c-0.429,0.668-0.784,1.491-1.007,2.33c-0.896,3.41-0.493,7.102,0.312,10.584
		c0.78,3.576,1.435,7.202,1.645,10.896c0.227,3.682,0.137,7.443-0.65,11.128c-0.757,3.681-2.13,7.304-4.257,10.496
		c-2.1,3.206-4.895,5.954-8.06,8.091c-0.395,0.27-0.797,0.524-1.201,0.777c-0.4,0.249-0.88,0.516-1.306,0.723
		c-0.881,0.438-1.773,0.805-2.673,1.133c-1.8,0.648-3.624,1.151-5.469,1.523c-3.693,0.71-7.445,1.059-11.212,0.868
		c-3.747-0.206-7.586-0.83-11.072-2.677c-1.728-0.915-3.334-2.236-4.423-3.954c-1.102-1.712-1.571-3.757-1.512-5.687
		c0.026-0.97,0.146-1.923,0.378-2.841c0.229-0.912,0.481-1.815,0.956-2.698c0.918-1.695,2.221-2.979,3.241-4.463
		c0.046-0.068,0.141-0.087,0.209-0.039c0.062,0.043,0.083,0.125,0.051,0.189c-0.815,1.654-1.979,3.117-2.624,4.724
		c-0.313,0.765-0.466,1.65-0.582,2.521c-0.105,0.867-0.163,1.732-0.111,2.583c0.09,1.7,0.629,3.313,1.612,4.599
		c0.977,1.293,2.356,2.247,3.868,2.957c1.521,0.707,3.193,1.148,4.896,1.438c1.704,0.297,3.452,0.428,5.204,0.442
		c3.504,0.017,7.042-0.334,10.47-1.095c3.438-0.744,6.779-1.771,9.583-3.637c2.913-1.851,5.473-4.23,7.442-7.062
		c1.966-2.829,3.394-6.051,4.274-9.45c0.86-3.406,1.31-6.959,1.327-10.542c-0.002-3.579-0.31-7.19-1-10.736
		c-0.346-1.795-0.633-3.632-0.705-5.479c-0.068-1.845-0.02-3.724,0.45-5.56c0.241-0.916,0.53-1.815,1.052-2.699
		c0.632-0.87,1.335-1.451,2.251-1.984c0.253-0.116,0.479-0.262,0.956-0.271c0.23-0.022,0.695,0.188,0.831,0.529
		c0.079,0.132,0.11,0.395,0.108,0.396l0.005,0.042c0.006,0.115,0.001,0.066,0.002,0.107l-0.004,0.118
		c-0.027,0.644-0.286,1.159-0.55,1.611c-0.562,0.888-1.261,1.564-1.976,2.197c-1.438,1.249-3.015,2.271-4.59,3.227
		c-1.588,0.957-3.224,1.86-4.942,2.615c-3.428,1.496-7.196,2.519-11.085,2.437c-0.97-0.02-1.939-0.104-2.9-0.263
		c-0.463-0.071-1.016-0.186-1.429-0.289c-0.471-0.104-1.03-0.28-1.511-0.494c-2.003-0.885-3.388-2.485-4.508-3.958
		c-1.133-1.426-2.093-3.156-3.189-3.166c-1.43-0.229-2.845,0.54-3.806,1.875c-0.949,1.325-1.543,3.014-1.695,4.733
		c-0.132,1.702,0.12,3.557,1.303,4.896c0.055,0.062,0.049,0.157-0.013,0.213C379.754,25.912,379.669,25.91,379.613,25.865z"/>
</g>
<g>
	<path fill="#010101" fill-opacity="0" stroke="#FFFFFF" stroke-linejoin="round" stroke-miterlimit="10" d="M427.294,49.994
		c-8.664,11.691-0.819,15.791,6.509,9.324c2.083-1.838,4.921-4.24,6.021-6.748c0.469-1.074,2.459-4.685,1.756-3.746
		c-2.736,3.646-7.634,13.746-0.117,12.861c4.837-0.568,9.296-2.328,11.175-6.713c0.142-0.326,1.196-5.087,1.208-5.07
		c1.066,1.422-0.273,12.223,0,12.313c1.245,0.416,9.004-12.883,12.072-11.348c1.621,0.81-1.078,7.944-1.449,8.934
		c-0.241,0.646-1.339,2.238-0.724,1.931c3.688-1.844,6.927-12.633,12.073-11.348c3.508,0.877-3.57,11.948-0.242,13.28
		c4.954,1.979,10.775-5.974,13.039-9.176c1.753-2.484,4.052-5.388,2.654-4.828c-2.768,1.106-9.881,12.797-3.381,12.797
		c5.475,0,4.847-5.813,5.071-9.658c0.056-0.965,0-3.864,0-2.897c0,12.283,11.765,12.029,21.248,9.658"/>
	<path fill="#FFFFFF" stroke="#FFFFFF" stroke-linejoin="round" stroke-miterlimit="10" d="M427.294,49.994
		c-1.362,1.941-2.601,4.02-3.259,6.285c-0.317,1.123-0.493,2.32-0.226,3.43c0.246,1.113,1.098,2.009,2.193,2.256
		c1.084,0.276,2.261,0.08,3.336-0.3c1.083-0.392,2.095-0.979,3.023-1.674c0.921-0.688,1.774-1.527,2.653-2.323
		c0.865-0.807,1.706-1.629,2.465-2.511c0.751-0.884,1.44-1.81,1.876-2.837c0.51-1.123,1.068-2.16,1.579-3.223l0.18-0.388
		l0.058-0.146c0.014,0.121-0.053-0.205,0.027,0.334c0.532,0.635,1.117,0.062,0.874,0.207c0.021-0.02-0.001,0.004-0.017,0.025
		c-0.161,0.215-0.33,0.459-0.487,0.698c-0.32,0.481-0.623,0.979-0.91,1.485c-0.573,1.016-1.087,2.064-1.52,3.14
		c-0.428,1.071-0.781,2.178-0.936,3.272c-0.16,1.078-0.062,2.215,0.55,2.758c0.598,0.564,1.723,0.617,2.816,0.447
		c1.149-0.154,2.283-0.381,3.377-0.707c2.179-0.647,4.226-1.742,5.601-3.433c0.343-0.419,0.646-0.869,0.909-1.344
		c0.131-0.237,0.25-0.481,0.359-0.73c0.008-0.017,0.042-0.094,0.027-0.061c0.021-0.054,0.005-0.021,0.013-0.043l0.052-0.192
		l0.104-0.421l0.794-3.468l0.1-0.438l0.05-0.221l0.027-0.116c0.015-0.051-0.013,0.025,0.045-0.156
		c3.064-0.365,0.866-0.074,1.56-0.145c0.307,0.521,0.323,0.838,0.398,1.188c0.104,0.67,0.128,1.285,0.144,1.902
		c0.022,1.229-0.023,2.432-0.083,3.633l-0.224,3.578l-0.106,1.758l-0.009,0.403c0,0.047,0.006,0.132,0.001,0.082
		c-0.001,0.005-0.001-0.06-0.072-0.212c-0.582-0.675-0.78-0.418-0.614-0.465c0.049,0.011,0.017-0.004-0.087-0.012
		c-0.062-0.008-0.187,0.022-0.187,0.022c-0.127,0.045-0.015,0.002,0.048-0.06c0.079-0.064,0.169-0.15,0.26-0.241
		c0.744-0.771,1.477-1.739,2.201-2.664l2.205-2.826c0.752-0.938,1.523-1.871,2.36-2.772c0.854-0.893,1.705-1.787,2.93-2.504
		c0.315-0.173,0.665-0.334,1.099-0.427c0.421-0.097,0.989-0.084,1.489,0.163c0.312,0.198,0.109,0.046,0.368,0.26
		c0.082,0.074,0.159,0.158,0.229,0.244c0.054,0.073,0.082,0.127,0.12,0.193c0.148,0.258,0.207,0.484,0.255,0.695
		c0.084,0.42,0.086,0.778,0.076,1.127c-0.074,1.355-0.385,2.537-0.706,3.725c-0.333,1.178-0.716,2.327-1.13,3.466l-0.156,0.425
		c-0.072,0.19-0.165,0.377-0.234,0.512l-0.428,0.798c-0.064,0.122-0.127,0.245-0.168,0.339c-0.021,0.045-0.037,0.091-0.031,0.076
		c0-0.016,0.02-0.024,0.02-0.202c-0.005-0.072-0.008-0.29-0.221-0.558c-0.244-0.308-0.633-0.336-0.726-0.332
		c-0.291,0.024-0.257,0.055-0.301,0.062c-0.062,0.032,0.039-0.021,0.051-0.028c0.076-0.039,0.115-0.064,0.147-0.087
		c0.074-0.045,0.182-0.122,0.272-0.192c0.763-0.602,1.472-1.526,2.135-2.463c0.667-0.946,1.307-1.946,1.979-2.945
		c0.675-0.998,1.374-2.003,2.197-2.959c0.828-0.941,1.773-1.896,3.123-2.475c0.668-0.281,1.453-0.42,2.211-0.334
		c0.188,0.022,0.375,0.055,0.558,0.098l0.119,0.029l0.054,0.018l0.11,0.035c0.144,0.055,0.298,0.121,0.403,0.19
		c0.48,0.274,0.807,0.789,0.933,1.212c0.259,0.868,0.155,1.547,0.076,2.199c-0.097,0.646-0.243,1.254-0.4,1.848
		c-0.318,1.187-0.688,2.32-1.017,3.445c-0.319,1.116-0.634,2.258-0.685,3.27c-0.032,0.498,0.077,0.938,0.193,1.033
		c0.064,0.064,0.078,0.08,0.4,0.188c0.191,0.062,0.446,0.119,0.674,0.144c0.944,0.101,1.965-0.194,2.92-0.699
		c1.924-1.028,3.603-2.693,5.121-4.436c1.539-1.753,2.849-3.689,4.272-5.628l1.026-1.429c0.163-0.237,0.322-0.477,0.463-0.706
		c0.066-0.114,0.136-0.229,0.185-0.331c0.051-0.082,0.083-0.23,0.066-0.111c0.002-0.002-0.004,0.079,0.007,0.114
		c0.006,0.026,0.023,0.124,0.078,0.217c0.082,0.173,0.357,0.33,0.445,0.329c0.227,0.027,0.191-0.006,0.185,0.006
		c-0.002,0.001-0.057,0.021-0.019,0.004l-0.102,0.045l-0.116,0.062c-0.188,0.108-0.395,0.267-0.594,0.44
		c-0.401,0.351-0.785,0.767-1.149,1.199c-1.435,1.758-2.665,3.801-3.371,5.93c-0.333,1.037-0.519,2.222-0.139,2.961
		c0.331,0.716,1.424,0.885,2.523,0.75c1.052-0.104,1.981-0.588,2.547-1.452c0.578-0.859,0.838-1.984,0.98-3.117
		c0.146-1.144,0.168-2.321,0.22-3.519l0.049-0.903c0.018-0.277,0.024-0.574,0.03-0.867l0.014-1.772v-0.221l-0.001-0.107
		l-0.001-0.049c-0.858-0.035,1.168,0.026,0.962-0.024l-0.004,0.42c-0.003,0.304,0.008,0.581,0.019,0.869
		c0.027,0.577,0.09,1.151,0.188,1.719c0.196,1.132,0.554,2.235,1.119,3.226c1.113,2.008,3.155,3.371,5.394,4.01
		c2.247,0.658,4.646,0.757,7.004,0.619c2.367-0.135,4.723-0.521,7.044-1.047c-2.297,0.625-4.639,1.11-7.021,1.349
		c-2.376,0.218-4.814,0.198-7.172-0.41c-1.173-0.308-2.317-0.782-3.344-1.472c-1.021-0.689-1.91-1.601-2.555-2.664
		c-0.652-1.06-1.075-2.242-1.323-3.446c-0.125-0.603-0.209-1.211-0.258-1.821c-0.021-0.306-0.043-0.623-0.049-0.915l-0.009-0.473
		c-0.205-0.123,1.829,0.034,0.971,0.021l0.003,0.062l0.005,0.115l0.008,0.226c0.021,0.601,0.028,1.196,0.029,1.799
		c0,0.302-0.001,0.601-0.016,0.917l-0.029,0.881c-0.028,1.182-0.027,2.388-0.158,3.61c-0.136,1.215-0.372,2.495-1.103,3.646
		c-0.361,0.57-0.878,1.07-1.476,1.424c-0.602,0.353-1.261,0.537-1.923,0.627c-0.373,0.048-0.613,0.057-0.971,0.062
		c-0.333,0.002-0.68-0.031-1.029-0.111c-0.691-0.141-1.464-0.604-1.838-1.32c-0.379-0.702-0.427-1.439-0.391-2.104
		c0.041-0.67,0.183-1.297,0.359-1.904c0.756-2.408,1.993-4.535,3.521-6.493c0.393-0.484,0.807-0.956,1.293-1.399
		c0.246-0.222,0.507-0.437,0.829-0.634c0.073-0.047,0.208-0.116,0.276-0.149l0.103-0.047l0.191-0.07
		c0.134-0.03,0.249-0.104,0.621-0.051c0.16,0.01,0.51,0.207,0.622,0.448c0.071,0.125,0.106,0.257,0.111,0.32
		c0.012,0.073,0.019,0.19,0.012,0.226c-0.046,0.418-0.143,0.545-0.216,0.729c-0.08,0.169-0.16,0.312-0.242,0.454
		c-0.163,0.281-0.331,0.541-0.5,0.798l-1.028,1.489c-1.371,1.914-2.729,3.934-4.32,5.775c-1.593,1.834-3.324,3.629-5.604,4.879
		c-1.134,0.604-2.487,1.055-3.931,0.916c-0.364-0.039-0.694-0.104-1.07-0.223c-0.24-0.07-0.807-0.271-1.143-0.663
		c-0.703-0.81-0.693-1.666-0.691-2.332c0.069-1.371,0.413-2.543,0.733-3.714c0.331-1.162,0.69-2.294,0.982-3.41
		c0.146-0.557,0.272-1.111,0.348-1.642c0.076-0.519,0.089-1.062-0.012-1.339c0.15-0.275-1.083-0.459-1.86-0.074
		c-0.858,0.361-1.668,1.122-2.39,1.968c-0.726,0.854-1.386,1.81-2.037,2.787c-0.65,0.979-1.287,1.989-1.984,2.994
		c-0.712,0.997-1.427,2.021-2.534,2.907c-0.146,0.11-0.28,0.207-0.46,0.317c-0.094,0.058-0.182,0.108-0.238,0.138l-0.146,0.076
		c-0.111,0.035-0.146,0.098-0.513,0.125c-0.129,0.008-0.559-0.031-0.826-0.367c-0.237-0.295-0.247-0.553-0.252-0.662
		c0-0.252,0.036-0.334,0.057-0.42c0.047-0.157,0.089-0.25,0.129-0.34c0.081-0.179,0.156-0.318,0.231-0.459l0.421-0.773
		c0.066-0.131,0.107-0.21,0.142-0.297l0.155-0.412c0.407-1.098,0.784-2.205,1.104-3.316c0.312-1.103,0.598-2.246,0.656-3.271
		c0.01-0.246,0-0.487-0.032-0.651c-0.015-0.078-0.038-0.142-0.042-0.142c0.001,0.004-0.003-0.012,0.007,0.002
		c0.02,0.031,0.047,0.061,0.079,0.08c0.168,0.092-0.181-0.117,0.015-0.01c-0.027-0.052-0.39-0.031-0.812,0.215
		c-0.844,0.478-1.691,1.3-2.476,2.123c-0.789,0.838-1.543,1.736-2.284,2.65l-2.206,2.791c-0.751,0.941-1.453,1.879-2.369,2.819
		c-0.121,0.118-0.247,0.237-0.397,0.36c-0.17,0.123-0.301,0.264-0.713,0.398c-0.034,0.014-0.197,0.043-0.296,0.042
		c-0.141,0.001-0.21-0.015-0.197-0.013c0.131-0.055-0.113,0.209-0.712-0.504c-0.085-0.188-0.095-0.287-0.101-0.319
		c-0.025-0.196-0.02-0.261-0.021-0.362l0.014-0.488l0.12-1.807l0.244-3.548c0.065-1.177,0.118-2.354,0.104-3.506
		c-0.009-0.571-0.033-1.147-0.11-1.656c-0.029-0.233-0.122-0.519-0.128-0.508c0.675-0.082-1.552,0.118,1.504-0.196
		c0.048-0.146,0.011-0.033,0.018-0.048l-0.024,0.103l-0.05,0.213l-0.101,0.434l-0.822,3.488l-0.113,0.445l-0.065,0.236l-0.057,0.17
		l-0.062,0.145c-0.131,0.295-0.275,0.584-0.435,0.867c-0.314,0.566-0.688,1.103-1.11,1.595c-1.696,1.997-4.083,3.175-6.453,3.829
		c-1.194,0.334-2.408,0.55-3.619,0.688c-0.614,0.076-1.286,0.113-1.968,0.017c-0.676-0.096-1.423-0.352-1.993-0.905
		c-0.572-0.552-0.854-1.304-0.949-1.982c-0.097-0.69-0.047-1.348,0.049-1.979c0.204-1.263,0.612-2.431,1.085-3.56
		c0.479-1.125,1.035-2.207,1.652-3.255c0.311-0.522,0.635-1.036,0.983-1.54c0.176-0.254,0.35-0.496,0.55-0.754
		c0.03-0.037,0.056-0.072,0.128-0.145c-0.223,0.125,0.412-0.497,0.955,0.178c0.087,0.577,0.001,0.285,0.008,0.443
		c-0.044,0.129-0.074,0.187-0.109,0.269l-0.203,0.419c-0.542,1.072-1.132,2.123-1.625,3.158c-0.524,1.158-1.29,2.156-2.109,3.055
		c-0.824,0.899-1.713,1.717-2.615,2.506c-0.911,0.771-1.783,1.582-2.792,2.291c-0.999,0.698-2.085,1.287-3.258,1.668
		c-1.165,0.369-2.451,0.557-3.683,0.203c-0.609-0.174-1.19-0.507-1.621-0.986c-0.437-0.476-0.706-1.074-0.836-1.685
		c-0.251-1.231-0.022-2.469,0.343-3.61C424.521,53.9,425.852,51.879,427.294,49.994z"/>
</g>
<g>
	<path fill="#010101" fill-opacity="0" d="M353.178,47.779c6.022-0.385,8.104-0.324,14.142-0.324"/>
	<path fill="#FFFFFF" stroke="#FFFFFF" stroke-linejoin="round" stroke-miterlimit="10" d="M353.178,47.779
		c2.327-0.545,4.691-0.754,7.06-0.807c2.368-0.021,4.725,0.088,7.082,0.481c-2.358,0.399-4.719,0.467-7.066,0.519
		C357.905,47.991,355.557,48.021,353.178,47.779z"/>
</g>
</svg>
